<mxfile host="app.diagrams.net" agent="Mozilla/5.0 (Windows NT 10.0; Win64; x64) AppleWebKit/537.36 (KHTML, like Gecko) Chrome/135.0.0.0 Safari/537.36" version="27.0.6">
  <diagram name="P치gina-1" id="RpwQGoGYZjUmVX78xZBA">
    <mxGraphModel dx="1793" dy="1205" grid="1" gridSize="10" guides="1" tooltips="1" connect="1" arrows="1" fold="1" page="0" pageScale="1" pageWidth="827" pageHeight="1169" math="0" shadow="0">
      <root>
        <mxCell id="0" />
        <mxCell id="1" parent="0" />
        <mxCell id="iX65m-ZONL90zX9ajTUJ-1" style="edgeStyle=orthogonalEdgeStyle;rounded=0;orthogonalLoop=1;jettySize=auto;html=1;entryX=0.5;entryY=0;entryDx=0;entryDy=0;" parent="1" source="iX65m-ZONL90zX9ajTUJ-2" target="iX65m-ZONL90zX9ajTUJ-4" edge="1">
          <mxGeometry relative="1" as="geometry" />
        </mxCell>
        <mxCell id="iX65m-ZONL90zX9ajTUJ-2" value="&lt;font style=&quot;font-size: 16px;&quot;&gt;INICIO&lt;/font&gt;" style="ellipse;whiteSpace=wrap;html=1;fillColor=#dae8fc;strokeColor=#6c8ebf;" parent="1" vertex="1">
          <mxGeometry x="205" y="-210" width="120" height="80" as="geometry" />
        </mxCell>
        <mxCell id="iX65m-ZONL90zX9ajTUJ-3" style="edgeStyle=orthogonalEdgeStyle;rounded=0;orthogonalLoop=1;jettySize=auto;html=1;entryX=0.5;entryY=0;entryDx=0;entryDy=0;" parent="1" source="iX65m-ZONL90zX9ajTUJ-4" target="iX65m-ZONL90zX9ajTUJ-6" edge="1">
          <mxGeometry relative="1" as="geometry" />
        </mxCell>
        <mxCell id="iX65m-ZONL90zX9ajTUJ-4" value="nombre&lt;div&gt;nota1, nota2, nota3, nota4, nota5, nota6, nota6, nota7, nota8, nota9, nota10&lt;/div&gt;&lt;div&gt;promedio&lt;/div&gt;&lt;div&gt;i, j&lt;/div&gt;" style="shape=parallelogram;perimeter=parallelogramPerimeter;whiteSpace=wrap;html=1;fixedSize=1;" parent="1" vertex="1">
          <mxGeometry x="82.5" y="-100" width="365" height="90" as="geometry" />
        </mxCell>
        <mxCell id="Av6lM8txRgh0IgwJLnuI-39" style="edgeStyle=orthogonalEdgeStyle;rounded=0;orthogonalLoop=1;jettySize=auto;html=1;" parent="1" source="iX65m-ZONL90zX9ajTUJ-6" target="Av6lM8txRgh0IgwJLnuI-37" edge="1">
          <mxGeometry relative="1" as="geometry" />
        </mxCell>
        <mxCell id="iX65m-ZONL90zX9ajTUJ-6" value="string nombre = &quot;&quot;;&lt;div&gt;int nota1 = 0, nota2 = 0, nota3 = 0, nota4 = 0, nota5 = 0, nota6 = 0, nota6 = 0, nota7 = 0,&amp;nbsp; nota8 = 0, nota9 = 0, nota10 = 0,&lt;/div&gt;&lt;div&gt;double promedio = 0,&lt;/div&gt;&lt;div&gt;&lt;span style=&quot;background-color: transparent; color: light-dark(rgb(0, 0, 0), rgb(255, 255, 255));&quot;&gt;int i = 0, j = 0;&lt;/span&gt;&lt;/div&gt;&lt;div&gt;&lt;span style=&quot;background-color: transparent; color: light-dark(rgb(0, 0, 0), rgb(255, 255, 255));&quot;&gt;string[,] matriznotas = new matriznotas[10,10];&lt;br&gt;string[] arreglonombre =&amp;nbsp; new arreglonombre[10];&lt;/span&gt;&lt;/div&gt;" style="rounded=0;whiteSpace=wrap;html=1;" parent="1" vertex="1">
          <mxGeometry x="80" y="20" width="370" height="100" as="geometry" />
        </mxCell>
        <mxCell id="Av6lM8txRgh0IgwJLnuI-3" style="edgeStyle=orthogonalEdgeStyle;rounded=0;orthogonalLoop=1;jettySize=auto;html=1;entryX=0.5;entryY=0;entryDx=0;entryDy=0;" parent="1" source="Av6lM8txRgh0IgwJLnuI-1" target="Av6lM8txRgh0IgwJLnuI-4" edge="1">
          <mxGeometry relative="1" as="geometry">
            <mxPoint x="170" y="330" as="targetPoint" />
            <Array as="points">
              <mxPoint x="170" y="315" />
              <mxPoint x="171" y="315" />
              <mxPoint x="171" y="330" />
              <mxPoint x="275" y="330" />
            </Array>
          </mxGeometry>
        </mxCell>
        <mxCell id="Av6lM8txRgh0IgwJLnuI-1" value="&lt;div&gt;Solicitar el nombre del alumno [i]&lt;/div&gt;" style="rounded=0;whiteSpace=wrap;html=1;" parent="1" vertex="1">
          <mxGeometry x="161.25" y="280" width="210" height="50" as="geometry" />
        </mxCell>
        <mxCell id="Av6lM8txRgh0IgwJLnuI-5" style="edgeStyle=orthogonalEdgeStyle;rounded=0;orthogonalLoop=1;jettySize=auto;html=1;" parent="1" source="Av6lM8txRgh0IgwJLnuI-4" edge="1">
          <mxGeometry relative="1" as="geometry">
            <mxPoint x="275" y="440" as="targetPoint" />
          </mxGeometry>
        </mxCell>
        <mxCell id="Av6lM8txRgh0IgwJLnuI-4" value="Leer el nombre del alumno [i + 1]" style="rounded=0;whiteSpace=wrap;html=1;" parent="1" vertex="1">
          <mxGeometry x="170" y="360" width="210" height="40" as="geometry" />
        </mxCell>
        <mxCell id="Av6lM8txRgh0IgwJLnuI-11" style="edgeStyle=orthogonalEdgeStyle;rounded=0;orthogonalLoop=1;jettySize=auto;html=1;" parent="1" source="Av6lM8txRgh0IgwJLnuI-8" target="Av6lM8txRgh0IgwJLnuI-10" edge="1">
          <mxGeometry relative="1" as="geometry" />
        </mxCell>
        <mxCell id="Av6lM8txRgh0IgwJLnuI-8" value="Leer nota No [j + 1] del alumno [i + 1]" style="rounded=0;whiteSpace=wrap;html=1;" parent="1" vertex="1">
          <mxGeometry x="180" y="720" width="210" height="40" as="geometry" />
        </mxCell>
        <mxCell id="Av6lM8txRgh0IgwJLnuI-12" style="edgeStyle=orthogonalEdgeStyle;rounded=0;orthogonalLoop=1;jettySize=auto;html=1;" parent="1" source="Av6lM8txRgh0IgwJLnuI-10" target="Av6lM8txRgh0IgwJLnuI-13" edge="1">
          <mxGeometry relative="1" as="geometry">
            <mxPoint x="460" y="870" as="targetPoint" />
          </mxGeometry>
        </mxCell>
        <mxCell id="Av6lM8txRgh0IgwJLnuI-15" value="NO" style="edgeLabel;html=1;align=center;verticalAlign=middle;resizable=0;points=[];" parent="Av6lM8txRgh0IgwJLnuI-12" vertex="1" connectable="0">
          <mxGeometry x="-0.2171" y="-3" relative="1" as="geometry">
            <mxPoint as="offset" />
          </mxGeometry>
        </mxCell>
        <mxCell id="Av6lM8txRgh0IgwJLnuI-16" style="edgeStyle=orthogonalEdgeStyle;rounded=0;orthogonalLoop=1;jettySize=auto;html=1;" parent="1" source="Av6lM8txRgh0IgwJLnuI-10" edge="1">
          <mxGeometry relative="1" as="geometry">
            <mxPoint x="285" y="990" as="targetPoint" />
          </mxGeometry>
        </mxCell>
        <mxCell id="Av6lM8txRgh0IgwJLnuI-17" value="SI" style="edgeLabel;html=1;align=center;verticalAlign=middle;resizable=0;points=[];" parent="Av6lM8txRgh0IgwJLnuI-16" vertex="1" connectable="0">
          <mxGeometry x="-0.362" y="1" relative="1" as="geometry">
            <mxPoint as="offset" />
          </mxGeometry>
        </mxCell>
        <mxCell id="Av6lM8txRgh0IgwJLnuI-10" value="Si nota ingresada no es tipo entero" style="rhombus;whiteSpace=wrap;html=1;" parent="1" vertex="1">
          <mxGeometry x="215" y="800" width="140" height="140" as="geometry" />
        </mxCell>
        <mxCell id="Av6lM8txRgh0IgwJLnuI-35" style="edgeStyle=orthogonalEdgeStyle;rounded=0;orthogonalLoop=1;jettySize=auto;html=1;entryX=1;entryY=0.5;entryDx=0;entryDy=0;" parent="1" source="Av6lM8txRgh0IgwJLnuI-13" target="Av6lM8txRgh0IgwJLnuI-28" edge="1">
          <mxGeometry relative="1" as="geometry">
            <Array as="points">
              <mxPoint x="630" y="870" />
              <mxPoint x="630" y="565" />
            </Array>
          </mxGeometry>
        </mxCell>
        <mxCell id="Av6lM8txRgh0IgwJLnuI-13" value="Mostrar mensaje: &quot;Intente de nuevo, ingrese un valor v치lido&quot;" style="shape=display;whiteSpace=wrap;html=1;" parent="1" vertex="1">
          <mxGeometry x="420" y="840" width="190" height="60" as="geometry" />
        </mxCell>
        <mxCell id="Av6lM8txRgh0IgwJLnuI-25" style="edgeStyle=orthogonalEdgeStyle;rounded=0;orthogonalLoop=1;jettySize=auto;html=1;" parent="1" source="Av6lM8txRgh0IgwJLnuI-18" target="Av6lM8txRgh0IgwJLnuI-24" edge="1">
          <mxGeometry relative="1" as="geometry" />
        </mxCell>
        <mxCell id="Av6lM8txRgh0IgwJLnuI-18" value="Guardar nota en matriznotas en posici칩n [i,j]" style="rounded=0;whiteSpace=wrap;html=1;" parent="1" vertex="1">
          <mxGeometry x="180" y="990" width="210" height="40" as="geometry" />
        </mxCell>
        <mxCell id="Av6lM8txRgh0IgwJLnuI-20" style="edgeStyle=orthogonalEdgeStyle;rounded=0;orthogonalLoop=1;jettySize=auto;html=1;entryX=0.5;entryY=0;entryDx=0;entryDy=0;" parent="1" source="Av6lM8txRgh0IgwJLnuI-19" edge="1">
          <mxGeometry relative="1" as="geometry">
            <mxPoint x="275" y="520" as="targetPoint" />
          </mxGeometry>
        </mxCell>
        <mxCell id="Av6lM8txRgh0IgwJLnuI-19" value="Guardar nombre en arreglonombre en posici칩n [i]" style="rounded=0;whiteSpace=wrap;html=1;" parent="1" vertex="1">
          <mxGeometry x="170" y="440" width="210" height="40" as="geometry" />
        </mxCell>
        <mxCell id="Av6lM8txRgh0IgwJLnuI-23" style="edgeStyle=orthogonalEdgeStyle;rounded=0;orthogonalLoop=1;jettySize=auto;html=1;" parent="1" source="Av6lM8txRgh0IgwJLnuI-21" target="Av6lM8txRgh0IgwJLnuI-8" edge="1">
          <mxGeometry relative="1" as="geometry" />
        </mxCell>
        <mxCell id="Av6lM8txRgh0IgwJLnuI-21" value="Solicitar la nota No. [j +1] del alumno [i]" style="rounded=0;whiteSpace=wrap;html=1;" parent="1" vertex="1">
          <mxGeometry x="180" y="650" width="210" height="40" as="geometry" />
        </mxCell>
        <mxCell id="Av6lM8txRgh0IgwJLnuI-43" style="edgeStyle=orthogonalEdgeStyle;rounded=0;orthogonalLoop=1;jettySize=auto;html=1;entryX=1;entryY=0.5;entryDx=0;entryDy=0;" parent="1" source="Av6lM8txRgh0IgwJLnuI-24" target="Av6lM8txRgh0IgwJLnuI-28" edge="1">
          <mxGeometry relative="1" as="geometry">
            <Array as="points">
              <mxPoint x="670" y="1080" />
              <mxPoint x="670" y="565" />
            </Array>
          </mxGeometry>
        </mxCell>
        <mxCell id="Av6lM8txRgh0IgwJLnuI-24" value="j++" style="rounded=0;whiteSpace=wrap;html=1;" parent="1" vertex="1">
          <mxGeometry x="180" y="1060" width="210" height="40" as="geometry" />
        </mxCell>
        <mxCell id="Av6lM8txRgh0IgwJLnuI-45" style="edgeStyle=orthogonalEdgeStyle;rounded=0;orthogonalLoop=1;jettySize=auto;html=1;" parent="1" source="Av6lM8txRgh0IgwJLnuI-28" target="Av6lM8txRgh0IgwJLnuI-44" edge="1">
          <mxGeometry relative="1" as="geometry" />
        </mxCell>
        <mxCell id="Av6lM8txRgh0IgwJLnuI-46" value="NO" style="edgeLabel;html=1;align=center;verticalAlign=middle;resizable=0;points=[];" parent="Av6lM8txRgh0IgwJLnuI-45" vertex="1" connectable="0">
          <mxGeometry x="-0.2182" y="-1" relative="1" as="geometry">
            <mxPoint as="offset" />
          </mxGeometry>
        </mxCell>
        <mxCell id="Av6lM8txRgh0IgwJLnuI-28" value="Si j &amp;lt; 10" style="rhombus;whiteSpace=wrap;html=1;" parent="1" vertex="1">
          <mxGeometry x="226.25" y="520" width="97.5" height="90" as="geometry" />
        </mxCell>
        <mxCell id="Av6lM8txRgh0IgwJLnuI-33" style="edgeStyle=orthogonalEdgeStyle;rounded=0;orthogonalLoop=1;jettySize=auto;html=1;entryX=0.459;entryY=0.108;entryDx=0;entryDy=0;entryPerimeter=0;" parent="1" source="Av6lM8txRgh0IgwJLnuI-28" target="Av6lM8txRgh0IgwJLnuI-21" edge="1">
          <mxGeometry relative="1" as="geometry" />
        </mxCell>
        <mxCell id="Av6lM8txRgh0IgwJLnuI-36" value="SI" style="edgeLabel;html=1;align=center;verticalAlign=middle;resizable=0;points=[];" parent="Av6lM8txRgh0IgwJLnuI-33" vertex="1" connectable="0">
          <mxGeometry x="-0.3688" y="1" relative="1" as="geometry">
            <mxPoint as="offset" />
          </mxGeometry>
        </mxCell>
        <mxCell id="Av6lM8txRgh0IgwJLnuI-40" style="edgeStyle=orthogonalEdgeStyle;rounded=0;orthogonalLoop=1;jettySize=auto;html=1;" parent="1" source="Av6lM8txRgh0IgwJLnuI-37" target="Av6lM8txRgh0IgwJLnuI-1" edge="1">
          <mxGeometry relative="1" as="geometry" />
        </mxCell>
        <mxCell id="Av6lM8txRgh0IgwJLnuI-41" value="SI" style="edgeLabel;html=1;align=center;verticalAlign=middle;resizable=0;points=[];" parent="Av6lM8txRgh0IgwJLnuI-40" vertex="1" connectable="0">
          <mxGeometry x="-0.6428" y="-2" relative="1" as="geometry">
            <mxPoint as="offset" />
          </mxGeometry>
        </mxCell>
        <mxCell id="Av6lM8txRgh0IgwJLnuI-37" value="Si i &amp;lt; 10" style="rhombus;whiteSpace=wrap;html=1;" parent="1" vertex="1">
          <mxGeometry x="226.25" y="170" width="80" height="80" as="geometry" />
        </mxCell>
        <mxCell id="Av6lM8txRgh0IgwJLnuI-49" style="edgeStyle=orthogonalEdgeStyle;rounded=0;orthogonalLoop=1;jettySize=auto;html=1;entryX=0;entryY=0.5;entryDx=0;entryDy=0;" parent="1" source="Av6lM8txRgh0IgwJLnuI-44" target="Av6lM8txRgh0IgwJLnuI-37" edge="1">
          <mxGeometry relative="1" as="geometry">
            <Array as="points">
              <mxPoint x="10" y="565" />
              <mxPoint x="10" y="210" />
            </Array>
          </mxGeometry>
        </mxCell>
        <mxCell id="Av6lM8txRgh0IgwJLnuI-44" value="i++" style="rounded=0;whiteSpace=wrap;html=1;" parent="1" vertex="1">
          <mxGeometry x="50" y="545" width="100" height="40" as="geometry" />
        </mxCell>
        <mxCell id="Av6lM8txRgh0IgwJLnuI-57" style="edgeStyle=orthogonalEdgeStyle;rounded=0;orthogonalLoop=1;jettySize=auto;html=1;" parent="1" source="Av6lM8txRgh0IgwJLnuI-53" target="Av6lM8txRgh0IgwJLnuI-58" edge="1">
          <mxGeometry relative="1" as="geometry">
            <mxPoint x="760" y="205" as="targetPoint" />
          </mxGeometry>
        </mxCell>
        <mxCell id="Av6lM8txRgh0IgwJLnuI-53" value="&lt;p style=&quot;--tw-border-spacing-x: 0; --tw-border-spacing-y: 0; --tw-translate-x: 0; --tw-translate-y: 0; --tw-rotate: 0; --tw-skew-x: 0; --tw-skew-y: 0; --tw-scale-x: 1; --tw-scale-y: 1; --tw-pan-x: ; --tw-pan-y: ; --tw-pinch-zoom: ; --tw-scroll-snap-strictness: proximity; --tw-gradient-from-position: ; --tw-gradient-via-position: ; --tw-gradient-to-position: ; --tw-ordinal: ; --tw-slashed-zero: ; --tw-numeric-figure: ; --tw-numeric-spacing: ; --tw-numeric-fraction: ; --tw-ring-inset: ; --tw-ring-offset-width: 0px; --tw-ring-offset-color: light-dark(#fff, #000000); --tw-ring-color: rgb(59 130 246 / 0.5); --tw-ring-offset-shadow: 0 0 #0000; --tw-ring-shadow: 0 0 #0000; --tw-shadow: 0 0 #0000; --tw-shadow-colored: 0 0 #0000; --tw-blur: ; --tw-brightness: ; --tw-contrast: ; --tw-grayscale: ; --tw-hue-rotate: ; --tw-invert: ; --tw-saturate: ; --tw-sepia: ; --tw-drop-shadow: ; --tw-backdrop-blur: ; --tw-backdrop-brightness: ; --tw-backdrop-contrast: ; --tw-backdrop-grayscale: ; --tw-backdrop-hue-rotate: ; --tw-backdrop-invert: ; --tw-backdrop-opacity: ; --tw-backdrop-saturate: ; --tw-backdrop-sepia: ; box-sizing: border-box; margin-top: 0px; margin-bottom: 1rem; color: rgb(29, 33, 37); font-family: -apple-system, BlinkMacSystemFont, &amp;quot;Segoe UI&amp;quot;, Roboto, &amp;quot;Helvetica Neue&amp;quot;, Arial, &amp;quot;Noto Sans&amp;quot;, &amp;quot;Liberation Sans&amp;quot;, sans-serif, &amp;quot;Apple Color Emoji&amp;quot;, &amp;quot;Segoe UI Emoji&amp;quot;, &amp;quot;Segoe UI Symbol&amp;quot;, &amp;quot;Noto Color Emoji&amp;quot;; text-align: left; background-color: rgb(248, 249, 250);&quot; id=&quot;yui_3_18_1_1_1747618163115_444&quot;&gt;&lt;font style=&quot;font-size: 10px;&quot;&gt;&lt;font style=&quot;&quot;&gt;* Seleccione una de las siguientes opciones:&lt;br&gt;&lt;/font&gt;&lt;span style=&quot;background-color: light-dark(rgb(248, 249, 250), rgb(22, 23, 24)); color: light-dark(rgb(29, 33, 37), rgb(207, 210, 214));&quot;&gt;1) Mostrar nombre y notas aprobadas para cada alumno.&lt;br&gt;&lt;/span&gt;&lt;span style=&quot;background-color: light-dark(rgb(248, 249, 250), rgb(22, 23, 24)); color: light-dark(rgb(29, 33, 37), rgb(207, 210, 214));&quot;&gt;2) Mostrar nombre y notas no aprobadas para cada alumno.&lt;br&gt;&lt;/span&gt;&lt;span style=&quot;background-color: light-dark(rgb(248, 249, 250), rgb(22, 23, 24)); color: light-dark(rgb(29, 33, 37), rgb(207, 210, 214));&quot;&gt;3) Mostrar el promedio de notas del grupo.&lt;br&gt;&lt;/span&gt;&lt;span style=&quot;background-color: light-dark(rgb(248, 249, 250), rgb(22, 23, 24)); color: light-dark(rgb(29, 33, 37), rgb(207, 210, 214));&quot;&gt;4) Salir del programa&lt;/span&gt;&lt;/font&gt;&lt;/p&gt;" style="shape=display;whiteSpace=wrap;html=1;" parent="1" vertex="1">
          <mxGeometry x="410" y="150" width="300" height="110" as="geometry" />
        </mxCell>
        <mxCell id="Av6lM8txRgh0IgwJLnuI-55" style="edgeStyle=orthogonalEdgeStyle;rounded=0;orthogonalLoop=1;jettySize=auto;html=1;entryX=0.02;entryY=0.517;entryDx=0;entryDy=0;entryPerimeter=0;" parent="1" source="Av6lM8txRgh0IgwJLnuI-37" target="Av6lM8txRgh0IgwJLnuI-53" edge="1">
          <mxGeometry relative="1" as="geometry" />
        </mxCell>
        <mxCell id="Av6lM8txRgh0IgwJLnuI-56" value="NO" style="edgeLabel;html=1;align=center;verticalAlign=middle;resizable=0;points=[];" parent="Av6lM8txRgh0IgwJLnuI-55" vertex="1" connectable="0">
          <mxGeometry x="-0.0241" relative="1" as="geometry">
            <mxPoint as="offset" />
          </mxGeometry>
        </mxCell>
        <mxCell id="Av6lM8txRgh0IgwJLnuI-60" style="edgeStyle=orthogonalEdgeStyle;rounded=0;orthogonalLoop=1;jettySize=auto;html=1;" parent="1" source="Av6lM8txRgh0IgwJLnuI-58" target="Av6lM8txRgh0IgwJLnuI-62" edge="1">
          <mxGeometry relative="1" as="geometry">
            <mxPoint x="930" y="205" as="targetPoint" />
            <Array as="points">
              <mxPoint x="905" y="205" />
              <mxPoint x="905" y="206" />
            </Array>
          </mxGeometry>
        </mxCell>
        <mxCell id="Av6lM8txRgh0IgwJLnuI-61" value="SI" style="edgeLabel;html=1;align=center;verticalAlign=middle;resizable=0;points=[];" parent="Av6lM8txRgh0IgwJLnuI-60" vertex="1" connectable="0">
          <mxGeometry x="-0.2687" y="1" relative="1" as="geometry">
            <mxPoint as="offset" />
          </mxGeometry>
        </mxCell>
        <mxCell id="Av6lM8txRgh0IgwJLnuI-65" style="edgeStyle=orthogonalEdgeStyle;rounded=0;orthogonalLoop=1;jettySize=auto;html=1;" parent="1" source="Av6lM8txRgh0IgwJLnuI-58" edge="1">
          <mxGeometry relative="1" as="geometry">
            <mxPoint x="825" y="310" as="targetPoint" />
          </mxGeometry>
        </mxCell>
        <mxCell id="Av6lM8txRgh0IgwJLnuI-66" value="NO" style="edgeLabel;html=1;align=center;verticalAlign=middle;resizable=0;points=[];" parent="Av6lM8txRgh0IgwJLnuI-65" vertex="1" connectable="0">
          <mxGeometry x="-0.3246" y="1" relative="1" as="geometry">
            <mxPoint as="offset" />
          </mxGeometry>
        </mxCell>
        <mxCell id="Av6lM8txRgh0IgwJLnuI-58" value="Si seleccion칩 opcion 1" style="rhombus;whiteSpace=wrap;html=1;" parent="1" vertex="1">
          <mxGeometry x="770" y="152.5" width="110" height="105" as="geometry" />
        </mxCell>
        <mxCell id="Av6lM8txRgh0IgwJLnuI-62" value="Ir a diagrama de flujo de opci칩n 1" style="rounded=0;whiteSpace=wrap;html=1;" parent="1" vertex="1">
          <mxGeometry x="940" y="175" width="120" height="60" as="geometry" />
        </mxCell>
        <mxCell id="Av6lM8txRgh0IgwJLnuI-69" style="edgeStyle=orthogonalEdgeStyle;rounded=0;orthogonalLoop=1;jettySize=auto;html=1;entryX=0;entryY=0.5;entryDx=0;entryDy=0;" parent="1" source="Av6lM8txRgh0IgwJLnuI-67" target="Av6lM8txRgh0IgwJLnuI-68" edge="1">
          <mxGeometry relative="1" as="geometry" />
        </mxCell>
        <mxCell id="Av6lM8txRgh0IgwJLnuI-70" value="" style="edgeStyle=orthogonalEdgeStyle;rounded=0;orthogonalLoop=1;jettySize=auto;html=1;" parent="1" source="Av6lM8txRgh0IgwJLnuI-67" target="Av6lM8txRgh0IgwJLnuI-68" edge="1">
          <mxGeometry relative="1" as="geometry" />
        </mxCell>
        <mxCell id="Av6lM8txRgh0IgwJLnuI-71" value="SI" style="edgeLabel;html=1;align=center;verticalAlign=middle;resizable=0;points=[];" parent="Av6lM8txRgh0IgwJLnuI-70" vertex="1" connectable="0">
          <mxGeometry x="-0.2213" y="1" relative="1" as="geometry">
            <mxPoint as="offset" />
          </mxGeometry>
        </mxCell>
        <mxCell id="Av6lM8txRgh0IgwJLnuI-72" style="edgeStyle=orthogonalEdgeStyle;rounded=0;orthogonalLoop=1;jettySize=auto;html=1;" parent="1" source="Av6lM8txRgh0IgwJLnuI-67" edge="1">
          <mxGeometry relative="1" as="geometry">
            <mxPoint x="825" y="460" as="targetPoint" />
          </mxGeometry>
        </mxCell>
        <mxCell id="Av6lM8txRgh0IgwJLnuI-73" value="NO" style="edgeLabel;html=1;align=center;verticalAlign=middle;resizable=0;points=[];" parent="Av6lM8txRgh0IgwJLnuI-72" vertex="1" connectable="0">
          <mxGeometry x="-0.2353" y="3" relative="1" as="geometry">
            <mxPoint as="offset" />
          </mxGeometry>
        </mxCell>
        <mxCell id="Av6lM8txRgh0IgwJLnuI-67" value="Si seleccion칩 opcion 2" style="rhombus;whiteSpace=wrap;html=1;" parent="1" vertex="1">
          <mxGeometry x="770" y="310" width="110" height="105" as="geometry" />
        </mxCell>
        <mxCell id="Av6lM8txRgh0IgwJLnuI-68" value="Ir a diagrama de flujo de opci칩n 2" style="rounded=0;whiteSpace=wrap;html=1;" parent="1" vertex="1">
          <mxGeometry x="930" y="332.5" width="120" height="60" as="geometry" />
        </mxCell>
        <mxCell id="Av6lM8txRgh0IgwJLnuI-74" style="edgeStyle=orthogonalEdgeStyle;rounded=0;orthogonalLoop=1;jettySize=auto;html=1;entryX=0;entryY=0.5;entryDx=0;entryDy=0;" parent="1" source="Av6lM8txRgh0IgwJLnuI-77" target="Av6lM8txRgh0IgwJLnuI-78" edge="1">
          <mxGeometry relative="1" as="geometry" />
        </mxCell>
        <mxCell id="Av6lM8txRgh0IgwJLnuI-75" value="" style="edgeStyle=orthogonalEdgeStyle;rounded=0;orthogonalLoop=1;jettySize=auto;html=1;" parent="1" source="Av6lM8txRgh0IgwJLnuI-77" target="Av6lM8txRgh0IgwJLnuI-78" edge="1">
          <mxGeometry relative="1" as="geometry" />
        </mxCell>
        <mxCell id="Av6lM8txRgh0IgwJLnuI-76" value="SI" style="edgeLabel;html=1;align=center;verticalAlign=middle;resizable=0;points=[];" parent="Av6lM8txRgh0IgwJLnuI-75" vertex="1" connectable="0">
          <mxGeometry x="-0.2213" y="1" relative="1" as="geometry">
            <mxPoint as="offset" />
          </mxGeometry>
        </mxCell>
        <mxCell id="Av6lM8txRgh0IgwJLnuI-84" style="edgeStyle=orthogonalEdgeStyle;rounded=0;orthogonalLoop=1;jettySize=auto;html=1;" parent="1" source="Av6lM8txRgh0IgwJLnuI-77" target="Av6lM8txRgh0IgwJLnuI-82" edge="1">
          <mxGeometry relative="1" as="geometry" />
        </mxCell>
        <mxCell id="Av6lM8txRgh0IgwJLnuI-77" value="Si seleccion칩 opcion 3" style="rhombus;whiteSpace=wrap;html=1;" parent="1" vertex="1">
          <mxGeometry x="770" y="460" width="110" height="105" as="geometry" />
        </mxCell>
        <mxCell id="Av6lM8txRgh0IgwJLnuI-78" value="Ir a diagrama de flujo de opci칩n 3" style="rounded=0;whiteSpace=wrap;html=1;" parent="1" vertex="1">
          <mxGeometry x="930" y="482.5" width="120" height="60" as="geometry" />
        </mxCell>
        <mxCell id="Av6lM8txRgh0IgwJLnuI-79" style="edgeStyle=orthogonalEdgeStyle;rounded=0;orthogonalLoop=1;jettySize=auto;html=1;entryX=0;entryY=0.5;entryDx=0;entryDy=0;" parent="1" source="Av6lM8txRgh0IgwJLnuI-82" edge="1">
          <mxGeometry relative="1" as="geometry">
            <mxPoint x="930" y="637.5" as="targetPoint" />
          </mxGeometry>
        </mxCell>
        <mxCell id="Av6lM8txRgh0IgwJLnuI-80" value="" style="edgeStyle=orthogonalEdgeStyle;rounded=0;orthogonalLoop=1;jettySize=auto;html=1;" parent="1" source="Av6lM8txRgh0IgwJLnuI-82" edge="1">
          <mxGeometry relative="1" as="geometry">
            <mxPoint x="930" y="637.5" as="targetPoint" />
          </mxGeometry>
        </mxCell>
        <mxCell id="Av6lM8txRgh0IgwJLnuI-81" value="SI" style="edgeLabel;html=1;align=center;verticalAlign=middle;resizable=0;points=[];" parent="Av6lM8txRgh0IgwJLnuI-80" vertex="1" connectable="0">
          <mxGeometry x="-0.2213" y="1" relative="1" as="geometry">
            <mxPoint as="offset" />
          </mxGeometry>
        </mxCell>
        <mxCell id="Av6lM8txRgh0IgwJLnuI-82" value="Si seleccion칩 opcion 4" style="rhombus;whiteSpace=wrap;html=1;" parent="1" vertex="1">
          <mxGeometry x="770" y="585" width="110" height="105" as="geometry" />
        </mxCell>
        <mxCell id="Av6lM8txRgh0IgwJLnuI-86" value="&lt;font style=&quot;font-size: 16px;&quot;&gt;FIN&lt;/font&gt;" style="ellipse;whiteSpace=wrap;html=1;fillColor=#dae8fc;strokeColor=#6c8ebf;" parent="1" vertex="1">
          <mxGeometry x="930" y="600" width="120" height="80" as="geometry" />
        </mxCell>
        <mxCell id="Av6lM8txRgh0IgwJLnuI-87" style="edgeStyle=orthogonalEdgeStyle;rounded=0;orthogonalLoop=1;jettySize=auto;html=1;entryX=0;entryY=0;entryDx=160;entryDy=0;entryPerimeter=0;" parent="1" source="Av6lM8txRgh0IgwJLnuI-62" target="Av6lM8txRgh0IgwJLnuI-53" edge="1">
          <mxGeometry relative="1" as="geometry">
            <Array as="points">
              <mxPoint x="1000" y="130" />
              <mxPoint x="570" y="130" />
            </Array>
          </mxGeometry>
        </mxCell>
        <mxCell id="Av6lM8txRgh0IgwJLnuI-88" style="edgeStyle=orthogonalEdgeStyle;rounded=0;orthogonalLoop=1;jettySize=auto;html=1;entryX=0;entryY=0;entryDx=160;entryDy=0;entryPerimeter=0;" parent="1" source="Av6lM8txRgh0IgwJLnuI-68" target="Av6lM8txRgh0IgwJLnuI-53" edge="1">
          <mxGeometry relative="1" as="geometry">
            <Array as="points">
              <mxPoint x="1090" y="363" />
              <mxPoint x="1090" y="130" />
              <mxPoint x="570" y="130" />
            </Array>
          </mxGeometry>
        </mxCell>
        <mxCell id="Av6lM8txRgh0IgwJLnuI-89" style="edgeStyle=orthogonalEdgeStyle;rounded=0;orthogonalLoop=1;jettySize=auto;html=1;entryX=0;entryY=0;entryDx=160;entryDy=0;entryPerimeter=0;" parent="1" source="Av6lM8txRgh0IgwJLnuI-78" target="Av6lM8txRgh0IgwJLnuI-53" edge="1">
          <mxGeometry relative="1" as="geometry">
            <Array as="points">
              <mxPoint x="1090" y="513" />
              <mxPoint x="1090" y="130" />
              <mxPoint x="570" y="130" />
            </Array>
          </mxGeometry>
        </mxCell>
      </root>
    </mxGraphModel>
  </diagram>
</mxfile>
